<svg width="24" height="24" viewBox="0 0 24 24" fill="none" xmlns="http://www.w3.org/2000/svg">
  <path
    d="M0.318973 9.26329L0.301177 9.34027C-1.16409 15.7832 2.85819 22.2021 9.30133 23.6896C15.7573 25.1801 22.1996 21.1548 23.6898 14.6987C25.1795 8.24652 21.1604 1.80859 14.7115 0.313129L14.6881 0.30773C13.7835 0.0997773 12.8799 0 11.9893 0C6.54116 0.000399909 1.61348 3.73595 0.318973 9.26329Z"
    fill="#8F51F9" />
  <path
    d="M16.3207 9.12342C16.0137 8.94775 15.6189 8.94775 15.268 9.12342L12.8116 10.5727L11.1447 11.4949L8.73221 12.9442C8.42516 13.1199 8.03039 13.1199 7.67947 12.9442L5.79331 11.8023C5.48626 11.6267 5.26694 11.2753 5.26694 10.8801V8.68425C5.26694 8.33291 5.4424 7.98158 5.79331 7.76199L7.67947 6.66407C7.98652 6.4884 8.3813 6.4884 8.73221 6.66407L10.6184 7.80591C10.9254 7.98158 11.1447 8.33291 11.1447 8.72817V10.1774L12.8116 9.21125V7.71808C12.8116 7.36674 12.6361 7.01541 12.2852 6.79582L8.77608 4.73173C8.46903 4.55606 8.07425 4.55606 7.72334 4.73173L4.12647 6.83974C3.77555 7.01541 3.6001 7.36674 3.6001 7.71808V11.8463C3.6001 12.1976 3.77555 12.5489 4.12647 12.7685L7.67947 14.8326C7.98652 15.0083 8.3813 15.0083 8.73221 14.8326L11.1447 13.4273L12.8116 12.4611L15.2241 11.0558C15.5312 10.8801 15.9259 10.8801 16.2769 11.0558L18.163 12.1537C18.4701 12.3294 18.6894 12.6807 18.6894 13.0759V15.2718C18.6894 15.6231 18.5139 15.9745 18.163 16.194L16.3207 17.292C16.0137 17.4676 15.6189 17.4676 15.268 17.292L13.3818 16.194C13.0748 16.0184 12.8555 15.667 12.8555 15.2718V13.8664L11.1886 14.8326V16.2819C11.1886 16.6332 11.3641 16.9845 11.715 17.2041L15.268 19.2682C15.575 19.4439 15.9698 19.4439 16.3207 19.2682L19.8737 17.2041C20.1808 17.0285 20.4001 16.6771 20.4001 16.2819V12.1098C20.4001 11.7584 20.2246 11.4071 19.8737 11.1875L16.3207 9.12342Z"
    fill="white" />
</svg>
