<svg viewBox="0 0 48 49" fill="none" xmlns="http://www.w3.org/2000/svg">
  <g clip-path="url(#clip0_2235_421)">
    <path
      d="M24 0C28.7468 0 33.3869 1.43689 37.3337 4.12898C41.2805 6.82108 44.3566 10.6475 46.1731 15.1243C47.9896 19.601 48.4649 24.5272 47.5389 29.2797C46.6128 34.0322 44.327 38.3978 40.9706 41.8241C37.6141 45.2505 33.3377 47.5839 28.6822 48.5293C24.0266 49.4746 19.201 48.9894 14.8156 47.135C10.4302 45.2807 6.68189 42.1405 4.04473 38.1115C1.40758 34.0825 0 29.3456 0 24.5C0 18.0022 2.52857 11.7705 7.02944 7.17591C11.5303 2.58127 17.6348 0 24 0Z"
      fill="#F0B90B" />
    <path
      d="M17.7855 21.8607L21.4122 18.1585L22.1855 17.3963L23.9989 15.5452L30.1855 21.8607L33.7855 18.1585L23.9989 8.16797L14.1855 18.1585L17.7855 21.8607Z"
      fill="white" />
    <path d="M24.0227 20.7866L20.4023 24.4824L24.0227 28.1782L27.6431 24.4824L24.0227 20.7866Z" fill="white" />
    <path
      d="M30.1855 27.1406L23.9989 33.4562L21.8389 31.224L21.4389 30.8156L17.7855 27.1406L14.1855 30.8156L23.9989 40.8062L33.7855 30.8156L30.1855 27.1406Z"
      fill="white" />
    <path d="M11.6214 20.8276L8.00098 24.5234L11.6214 28.2192L15.2417 24.5234L11.6214 20.8276Z" fill="white" />
    <path d="M36.3919 20.8315L32.7715 24.5273L36.3919 28.2232L40.0123 24.5273L36.3919 20.8315Z" fill="white" />
  </g>
  <defs>
    <clipPath id="clip0_2235_421">
      <rect width="48" height="49" fill="white" />
    </clipPath>
  </defs>
</svg>
