<svg viewBox="0 0 17 18" fill="none" xmlns="http://www.w3.org/2000/svg">
  <path
    d="M2.05992 0.000905281H2.42516C2.77932 0.0832997 3.03786 0.311469 3.28755 0.567706C4.96099 2.28531 6.63782 3.99945 8.31805 5.71011C8.49823 5.89437 8.50576 5.89437 8.68549 5.71011C10.3678 3.99251 12.0485 2.2743 13.7275 0.555483C13.9732 0.30332 14.2286 0.0814889 14.5775 0H14.9427C15.2969 0.0796781 15.5625 0.29834 15.8047 0.562726C16.0045 0.781539 16.2111 0.992807 16.4245 1.19653C16.699 1.45865 16.9318 1.74296 17 2.13501V2.43969C16.9256 2.82359 16.6901 3.09749 16.4245 3.36459C14.7472 5.06861 13.0733 6.77641 11.4028 8.48798C11.2227 8.67178 11.2227 8.67812 11.4028 8.86237C13.076 10.5709 14.7499 12.2787 16.4245 13.9858C16.687 14.2529 16.9234 14.5268 17 14.9107V15.2153C16.94 15.5153 16.7913 15.7892 16.5741 15.9999C16.2744 16.2924 15.9866 16.5979 15.6931 16.8972C15.0924 17.5093 14.4314 17.5106 13.8337 16.9004C12.1166 15.1468 10.3997 13.3932 8.68284 11.6393C8.50576 11.4583 8.49646 11.4583 8.31539 11.6425C6.58676 13.4081 4.85799 15.1737 3.12906 16.9393C2.58542 17.4939 1.89479 17.4925 1.35247 16.9425C1.105 16.6917 0.865495 16.4332 0.611823 16.1887C0.336016 15.9225 0.0858854 15.6432 0 15.2497V14.9111C0.0734896 14.5263 0.309896 14.2538 0.575521 13.9867C2.25279 12.2826 3.92653 10.575 5.59672 8.86373C5.7738 8.68265 5.7738 8.66997 5.59672 8.48752C3.92387 6.77988 2.25058 5.07254 0.576849 3.36549C0.31388 3.09839 0.0757031 2.8254 0.00132807 2.44059V2.10196C0.0863281 1.72304 0.318308 1.44462 0.58836 1.18748C0.802188 0.9833 1.00982 0.771881 1.20815 0.553672C1.44721 0.292002 1.71107 0.0801306 2.05992 0.000905281Z"
    fill="black" />
</svg>
