<svg width="24" height="24" viewBox="0 0 24 24" fill="none" xmlns="http://www.w3.org/2000/svg">
  <path
    d="M12 0C5.37262 0 0 5.37262 0 12C0 18.6274 5.37262 24 12 24C18.6274 24 24 18.6274 24 12C24 5.37262 18.6274 0 12 0Z"
    fill="#21B384" />
  <path fill-rule="evenodd" clip-rule="evenodd"
    d="M13.4177 19.0563V13.5038C16.7153 13.3539 19.2 12.6896 19.2 11.8939C19.2 11.0983 16.7153 10.4346 13.4177 10.2845V8.61113H17.3722V6H6.62794V8.61146H10.5824V10.2848C7.28652 10.4346 4.80005 11.0986 4.80005 11.8943C4.80005 12.6899 7.28484 13.3536 10.5824 13.5038V19.0563H13.4177ZM13.4177 12.5655V10.5461C16.2815 10.6758 18.4178 11.1798 18.4178 11.7819C18.4178 12.4825 15.5271 13.0503 11.9627 13.0503C8.39837 13.0503 5.50869 12.4825 5.50869 11.7819C5.50869 11.1747 7.68132 10.667 10.5824 10.5427V12.5655H13.4177Z"
    fill="white" />
</svg>
