<svg width="24" height="24" viewBox="0 0 24 24" fill="none" xmlns="http://www.w3.org/2000/svg">
  <path
    d="M0 12C-2.34822e-08 13.5759 0.310389 15.1363 0.913446 16.5922C1.5165 18.0481 2.40042 19.371 3.51472 20.4853C4.62902 21.5996 5.95189 22.4835 7.4078 23.0866C8.86371 23.6896 10.4241 24 12 24C13.5759 24 15.1363 23.6896 16.5922 23.0866C18.0481 22.4835 19.371 21.5996 20.4853 20.4853C21.5996 19.371 22.4835 18.0481 23.0866 16.5922C23.6896 15.1363 24 13.5759 24 12C24 10.4241 23.6896 8.86371 23.0866 7.4078C22.4835 5.95189 21.5996 4.62902 20.4853 3.51472C19.371 2.40042 18.0481 1.5165 16.5922 0.913446C15.1363 0.310389 13.5759 0 12 0C10.4241 0 8.86371 0.310389 7.4078 0.913446C5.95189 1.5165 4.62902 2.40042 3.51472 3.51472C2.40042 4.62902 1.5165 5.95189 0.913446 7.4078C0.310389 8.86371 -2.34822e-08 10.4241 0 12Z"
    fill="#F7931A" />
  <path
    d="M15.2719 12.0498L15.1367 12.0136C16.2914 12.3024 17.4793 11.6164 17.7898 10.4572C17.8655 10.1781 17.8853 9.88685 17.8479 9.60012C17.8106 9.3134 17.717 9.03687 17.5724 8.78646C17.4279 8.53605 17.2352 8.3167 17.0056 8.14101C16.7759 7.96533 16.5138 7.83678 16.2343 7.76276L15.2587 7.50131L15.8385 5.33755L14.4475 4.96482L13.8678 7.12857L12.7525 6.82984L13.3334 4.66234L11.9403 4.28906L11.3595 6.45657L8.80634 5.7725L8.40008 7.28893L10.1774 7.76517L8.3191 14.7005L6.54176 14.2243L6.1355 15.7407L8.68862 16.4247L8.08794 18.6665L9.48102 19.0398L10.0817 16.798L11.197 17.0968L10.5965 19.3377L11.9875 19.7105L12.5879 17.4695L13.7375 17.7776C15.3215 18.2021 16.9505 17.2617 17.375 15.6774C17.7995 14.0931 16.8559 12.4743 15.2719 12.0498ZM12.4696 8.32777L13.4741 8.597L14.1405 8.77559C14.4108 8.84799 14.6318 8.99011 14.8055 9.19203C15.1104 9.52214 15.2408 10.0021 15.1163 10.4658C14.9922 10.9294 14.6393 11.2802 14.2102 11.4134C13.959 11.5014 13.6967 11.514 13.4261 11.4416L12.7598 11.263L11.7553 10.9938L12.4696 8.32777ZM13.0743 15.6538C13.0427 15.6557 13.0234 15.6506 12.9944 15.6428L11.6807 15.2907L10.6762 15.0215L11.3906 12.3555L12.3951 12.6247L13.7088 12.9768C13.7377 12.9846 13.757 12.9897 13.7836 13.0071C14.4711 13.2224 14.8736 13.9617 14.6846 14.667C14.4955 15.3722 13.7774 15.8112 13.0743 15.6538Z"
    fill="white" />
</svg>
