<svg width="24" height="24" viewBox="0 0 24 24" fill="none" xmlns="http://www.w3.org/2000/svg">
  <path
    d="M19.6695 5.01897C19.6634 5.00709 19.6532 4.99779 19.6409 4.99272C18.2112 4.33679 16.7026 3.86907 15.1526 3.60124C15.1386 3.59863 15.124 3.60052 15.1111 3.60664C15.0981 3.61277 15.0874 3.62282 15.0805 3.63537C14.8751 4.00823 14.6886 4.39122 14.5218 4.78287C12.851 4.52925 11.1516 4.52925 9.4808 4.78287C9.31287 4.39022 9.12339 4.00714 8.91324 3.63537C8.90603 3.62309 8.8953 3.61327 8.88243 3.60719C8.86956 3.6011 8.85515 3.59903 8.84109 3.60124C7.29098 3.8685 5.78223 4.33627 4.35279 4.99276C4.34056 4.99794 4.33023 5.0068 4.32324 5.01811C1.46465 9.28703 0.681579 13.451 1.06573 17.5634C1.06681 17.5735 1.06991 17.5832 1.07483 17.5921C1.07976 17.6009 1.08642 17.6087 1.09442 17.615C2.75895 18.8474 4.62074 19.7882 6.60035 20.397C6.6143 20.4012 6.62918 20.401 6.64301 20.3965C6.65684 20.392 6.66895 20.3833 6.67772 20.3717C7.10289 19.7932 7.47963 19.1806 7.8041 18.5401C7.80856 18.5313 7.81111 18.5217 7.81157 18.5119C7.81204 18.502 7.81041 18.4922 7.8068 18.483C7.80319 18.4738 7.79768 18.4655 7.79063 18.4587C7.78358 18.4518 7.77515 18.4465 7.76589 18.4431C7.1718 18.2158 6.59665 17.9417 6.04584 17.6236C6.03584 17.6177 6.02743 17.6094 6.02137 17.5995C6.01532 17.5896 6.01179 17.5784 6.0111 17.5668C6.01042 17.5552 6.01259 17.5437 6.01744 17.5331C6.02229 17.5226 6.02966 17.5134 6.0389 17.5064C6.15481 17.4198 6.2687 17.3305 6.38049 17.2387C6.3903 17.2306 6.40216 17.2255 6.41475 17.2238C6.42734 17.2221 6.44015 17.2239 6.45174 17.2291C10.0603 18.876 13.9671 18.876 17.533 17.2291C17.5446 17.2236 17.5576 17.2215 17.5703 17.223C17.5831 17.2246 17.5952 17.2297 17.6051 17.2379C17.7171 17.3302 17.8312 17.4197 17.9476 17.5064C17.9569 17.5133 17.9643 17.5224 17.9692 17.5329C17.9742 17.5434 17.9764 17.555 17.9758 17.5666C17.9752 17.5782 17.9718 17.5894 17.9658 17.5994C17.9598 17.6093 17.9515 17.6176 17.9415 17.6236C17.392 17.9444 16.8163 18.2183 16.2206 18.4422C16.2114 18.4457 16.203 18.4512 16.196 18.4581C16.189 18.4651 16.1835 18.4735 16.18 18.4828C16.1764 18.492 16.1749 18.5019 16.1754 18.5118C16.176 18.5217 16.1786 18.5313 16.1831 18.5401C16.513 19.177 16.8892 19.7888 17.3087 20.3707C17.3172 20.3826 17.3292 20.3916 17.3431 20.3963C17.357 20.401 17.372 20.4012 17.386 20.3969C19.3692 19.7901 21.2342 18.8493 22.9009 17.615C22.909 17.609 22.9157 17.6014 22.9207 17.5927C22.9256 17.584 22.9286 17.5743 22.9295 17.5643C23.3894 12.8099 22.1596 8.68006 19.6695 5.01897ZM8.34302 15.0594C7.25657 15.0594 6.36137 14.0624 6.36137 12.8379C6.36137 11.6135 7.2392 10.6164 8.34302 10.6164C9.45545 10.6164 10.342 11.6221 10.3246 12.8378C10.3246 14.0624 9.44675 15.0594 8.34302 15.0594ZM15.6698 15.0594C14.5834 15.0594 13.6882 14.0624 13.6882 12.8379C13.6882 11.6135 14.566 10.6164 15.6698 10.6164C16.7823 10.6164 17.6688 11.6221 17.6514 12.8378C17.6514 14.0624 16.7823 15.0594 15.6698 15.0594Z"
    fill="#666666" />
</svg>
