<svg width="80" height="80" viewBox="0 0 80 80" fill="none" xmlns="http://www.w3.org/2000/svg">
<path opacity="0.2" d="M58 19.2H22C19.8 19.2 18 21 18 23.2V59.2C18 61.4 19.8 63.2 22 63.2H42.72C41.76 61.28 41.2 59.0799 41.2 56.7999C41.2 48.8399 47.64 42.3999 55.6 42.3999C57.92 42.3999 60.08 42.92 62 43.92V23.2C62 21 60.2 19.2 58 19.2ZM43.4 37.28L34.48 48.16L32.8 46.5199V46.4799V46.5199L31.12 48.16V44.8799L41.52 38.2L30 43.8L27 40.9999V40.64L43.4 36.88V37.28V37.28ZM54.8 30H25.2C24.52 30 24 29.48 24 28.8C24 28.12 24.52 27.6 25.2 27.6H54.8C55.48 27.6 56 28.12 56 28.8C56 29.48 55.48 30 54.8 30Z" fill="#FAC406"/>
<path opacity="0.2" d="M8 70C8 71.0609 11.3714 72.0783 17.3726 72.8284C23.3737 73.5786 31.5131 74 40 74C48.4869 74 56.6262 73.5786 62.6274 72.8284C68.6286 72.0783 72 71.0609 72 70C72 68.9391 68.6286 67.9217 62.6274 67.1716C56.6262 66.4214 48.4869 66 40 66C31.5131 66 23.3737 66.4214 17.3726 67.1716C11.3714 67.9217 8 68.9391 8 70V70Z" fill="#FAC406"/>
<path opacity="0.5" d="M69.12 59.84C69.12 60.52 69.64 61.04 70.32 61.04C71 61.04 71.52 60.52 71.52 59.84C71.52 59.16 71 58.64 70.32 58.64C69.64 58.64 69.12 59.2 69.12 59.84ZM72.4 65C70.88 65.4 70.56 65.72 70.2 67.2C69.8 65.68 69.48 65.36 68 65C69.48 64.6 69.84 64.28 70.2 62.8C70.56 64.28 70.88 64.64 72.4 65ZM12.6 16.04C10.64 16.56 10.24 16.96 9.71997 18.92C9.19997 16.96 8.79997 16.56 6.83997 16.04C8.79997 15.52 9.19997 15.08 9.71997 13.16C10.2 15.12 10.64 15.52 12.6 16.04ZM71 15.96C69.8 16.28 69.56 16.52 69.24 17.72C68.92 16.52 68.68 16.28 67.48 15.96C68.68 15.64 68.92 15.4 69.24 14.2C69.52 15.4 69.8 15.64 71 15.96ZM70.16 11C67.04 11.8 66.4 12.48 65.56 15.6C64.76 12.48 64.08 11.84 60.96 11C64.08 10.2 64.72 9.52002 65.56 6.40002C66.36 9.48002 67.04 10.16 70.16 11ZM55.6 68.4C49.2 68.4 44 63.2 44 56.8C44 50.4 49.2 45.2 55.6 45.2C62 45.2 67.2 50.4 67.2 56.8C67.2 63.2 62 68.4 55.6 68.4ZM55.6 47.6C50.52 47.6 46.4 51.72 46.4 56.8C46.4 61.88 50.52 66 55.6 66C60.68 66 64.8 61.88 64.8 56.8C64.8 51.72 60.68 47.6 55.6 47.6Z" fill="#FAC406"/>
<path opacity="0.5" d="M61.2 58H55.6C54.92 58 54.4 57.48 54.4 56.8V51.2C54.4 50.52 54.92 50 55.6 50C56.28 50 56.8 50.52 56.8 51.2V55.6H61.2C61.88 55.6 62.4 56.12 62.4 56.8C62.4 57.48 61.88 58 61.2 58V58Z" fill="#FAC406"/>
<path opacity="0.5" d="M41.4 68.4H22C16.92 68.4 12.8 64.28 12.8 59.2V23.2C12.8 18.12 16.92 14 22 14H58.0001C63.0801 14 67.2 18.12 67.2 23.2V42.6C67.2 43.28 66.68 43.8 66 43.8C65.32 43.8 64.8 43.28 64.8 42.6V23.2C64.8 19.44 61.7601 16.4 58.0001 16.4H22C18.24 16.4 15.2 19.44 15.2 23.2V59.2C15.2 62.96 18.24 66 22 66H41.4C42.08 66 42.6001 66.52 42.6001 67.2C42.6001 67.88 42.08 68.4 41.4 68.4V68.4Z" fill="#FAC406"/>
</svg>
