<svg width="132" height="39" viewBox="0 0 132 39" fill="none" xmlns="http://www.w3.org/2000/svg">
  <path
    d="M3.54771 13.3265C1.21057 15.1428 2.85608 18.1069 5.64717 18.7063L12.8472 20.431C13.2942 20.5381 13.6465 20.0287 13.4154 19.6314C10.3256 14.318 13.9371 11.8495 23.4364 4.9747L12.166 4.84875L3.54771 13.3265Z"
    fill="#FAC406" />
  <path
    d="M27.2457 25.5636C29.5829 23.7474 27.9374 20.7832 25.1463 20.1838L17.9463 18.4591C17.4993 18.352 17.147 18.8614 17.378 19.2587C20.4679 24.5722 16.8563 27.0407 7.35702 33.9154L18.6275 34.0414L27.2457 25.5636Z"
    fill="#333333" />
  <path
    d="M53.6636 23.5827C53.6636 24.5645 53.422 25.4217 52.9389 26.1542C52.4558 26.8866 51.7545 27.4555 50.835 27.8607C49.9311 28.2503 48.8246 28.4451 47.5155 28.4451C46.9389 28.4451 46.3701 28.4061 45.809 28.3282C45.2636 28.2503 44.7337 28.1412 44.2194 28.0009C43.7207 27.8451 43.2454 27.6581 42.7935 27.4399V24.1438C43.5883 24.4866 44.4064 24.8061 45.248 25.1022C46.1051 25.3827 46.9545 25.523 47.7961 25.523C48.3727 25.523 48.8324 25.4451 49.1753 25.2892C49.5337 25.1334 49.7909 24.923 49.9467 24.6581C50.1181 24.3931 50.2038 24.0892 50.2038 23.7464C50.2038 23.3256 50.0558 22.9671 49.7597 22.671C49.4792 22.3749 49.0974 22.1022 48.6142 21.8529C48.1311 21.5879 47.5779 21.3074 46.9545 21.0113C46.5649 20.8243 46.1441 20.6061 45.6922 20.3568C45.2402 20.0918 44.8038 19.7723 44.3831 19.3983C43.9779 19.0087 43.6428 18.5412 43.3779 17.9957C43.1129 17.4503 42.9805 16.7957 42.9805 16.0321C42.9805 15.0347 43.2064 14.1853 43.6584 13.484C44.1259 12.7671 44.7805 12.2217 45.622 11.8477C46.4792 11.4736 47.4844 11.2866 48.6376 11.2866C49.5103 11.2866 50.3363 11.3879 51.1155 11.5905C51.9103 11.7931 52.7363 12.0814 53.5935 12.4555L52.448 15.2139C51.6844 14.9022 50.9987 14.6607 50.3909 14.4892C49.7831 14.3178 49.1597 14.2321 48.5207 14.2321C48.0844 14.2321 47.7103 14.3022 47.3987 14.4425C47.087 14.5827 46.8454 14.7775 46.674 15.0269C46.5181 15.2762 46.4402 15.5723 46.4402 15.9152C46.4402 16.3048 46.5571 16.6399 46.7909 16.9204C47.0246 17.1853 47.3753 17.4425 47.8428 17.6918C48.3103 17.9412 48.8948 18.2373 49.5961 18.5801C50.4532 18.9853 51.1779 19.4061 51.7701 19.8425C52.3779 20.2788 52.8454 20.7931 53.1727 21.3853C53.5 21.9775 53.6636 22.71 53.6636 23.5827Z"
    fill="#333333" />
  <path
    d="M61.6533 15.1905C63.3676 15.1905 64.6767 15.5645 65.5806 16.3126C66.5 17.0451 66.9598 18.1749 66.9598 19.7022V28.2113H64.5286L63.8507 26.4814H63.7572C63.3987 26.9334 63.0247 27.3074 62.6351 27.6035C62.2611 27.8996 61.8247 28.11 61.326 28.2347C60.8429 28.3749 60.2429 28.4451 59.526 28.4451C58.778 28.4451 58.1 28.3048 57.4922 28.0243C56.9 27.7282 56.4325 27.284 56.0896 26.6918C55.7468 26.084 55.5754 25.3204 55.5754 24.4009C55.5754 23.0451 56.0507 22.0477 57.0013 21.4087C57.952 20.7542 59.378 20.3957 61.2793 20.3334L63.5 20.2633V19.7022C63.5 19.0321 63.3208 18.5412 62.9624 18.2295C62.6195 17.9178 62.1364 17.762 61.513 17.762C60.8896 17.762 60.2819 17.8555 59.6896 18.0425C59.0974 18.2139 58.5052 18.4321 57.913 18.697L56.7676 16.336C57.4533 15.9775 58.2091 15.697 59.0351 15.4944C59.8767 15.2918 60.7494 15.1905 61.6533 15.1905ZM62.1442 22.3438C61.0221 22.3749 60.2429 22.5775 59.8065 22.9516C59.3702 23.3256 59.152 23.8165 59.152 24.4243C59.152 24.9542 59.3078 25.336 59.6195 25.5697C59.9312 25.7879 60.3364 25.897 60.8351 25.897C61.5832 25.897 62.2143 25.6788 62.7286 25.2425C63.2429 24.7905 63.5 24.1594 63.5 23.349V22.297L62.1442 22.3438Z"
    fill="#333333" />
  <path d="M74.0082 28.2113H70.5251V10.4451H74.0082V28.2113Z" fill="#333333" />
  <path
    d="M80.6866 28.2113L75.8243 15.4477H79.471L81.9256 22.7178C82.0191 22.9983 82.097 23.2944 82.1593 23.6061C82.2373 23.9178 82.2918 24.2217 82.323 24.5178C82.3697 24.8139 82.4009 25.0866 82.4165 25.336H82.51C82.5256 25.071 82.5567 24.7905 82.6035 24.4944C82.6502 24.1983 82.7048 23.9022 82.7671 23.6061C82.845 23.2944 82.9308 22.9983 83.0243 22.7178L85.4788 15.4477H89.1256L84.2632 28.2113H80.6866Z"
    fill="#333333" />
  <path
    d="M96.1932 15.1905C97.9074 15.1905 99.2165 15.5645 100.12 16.3126C101.04 17.0451 101.5 18.1749 101.5 19.7022V28.2113H99.0685L98.3906 26.4814H98.2971C97.9386 26.9334 97.5646 27.3074 97.175 27.6035C96.801 27.8996 96.3646 28.11 95.8659 28.2347C95.3828 28.3749 94.7828 28.4451 94.0659 28.4451C93.3178 28.4451 92.6399 28.3048 92.0321 28.0243C91.4399 27.7282 90.9724 27.284 90.6295 26.6918C90.2867 26.084 90.1152 25.3204 90.1152 24.4009C90.1152 23.0451 90.5906 22.0477 91.5412 21.4087C92.4919 20.7542 93.9178 20.3957 95.8191 20.3334L98.0399 20.2633V19.7022C98.0399 19.0321 97.8607 18.5412 97.5023 18.2295C97.1594 17.9178 96.6763 17.762 96.0529 17.762C95.4295 17.762 94.8217 17.8555 94.2295 18.0425C93.6373 18.2139 93.0451 18.4321 92.4529 18.697L91.3074 16.336C91.9932 15.9775 92.749 15.697 93.575 15.4944C94.4165 15.2918 95.2893 15.1905 96.1932 15.1905ZM96.6841 22.3438C95.562 22.3749 94.7828 22.5775 94.3464 22.9516C93.91 23.3256 93.6919 23.8165 93.6919 24.4243C93.6919 24.9542 93.8477 25.336 94.1594 25.5697C94.4711 25.7879 94.8763 25.897 95.375 25.897C96.123 25.897 96.7542 25.6788 97.2685 25.2425C97.7828 24.7905 98.0399 24.1594 98.0399 23.349V22.297L96.6841 22.3438Z"
    fill="#333333" />
  <path
    d="M109.109 28.4451C107.691 28.4451 106.53 27.8918 105.626 26.7853C104.738 25.6632 104.294 24.0191 104.294 21.8529C104.294 19.671 104.745 18.0191 105.649 16.897C106.553 15.7749 107.738 15.2139 109.203 15.2139C109.81 15.2139 110.348 15.2996 110.816 15.471C111.283 15.6269 111.681 15.8451 112.008 16.1256C112.351 16.4061 112.639 16.7256 112.873 17.084H112.99C112.943 16.8347 112.888 16.4762 112.826 16.0087C112.764 15.5256 112.732 15.0347 112.732 14.536V10.4451H116.216V28.2113H113.551L112.873 26.5516H112.732C112.514 26.8944 112.234 27.2139 111.891 27.51C111.564 27.7905 111.174 28.0165 110.722 28.1879C110.27 28.3594 109.732 28.4451 109.109 28.4451ZM110.325 25.6632C111.291 25.6632 111.969 25.3827 112.358 24.8217C112.748 24.2451 112.951 23.3879 112.966 22.2503V21.8762C112.966 20.6295 112.771 19.6788 112.382 19.0243C112.008 18.3697 111.307 18.0425 110.278 18.0425C109.514 18.0425 108.914 18.3775 108.478 19.0477C108.042 19.7022 107.823 20.6529 107.823 21.8996C107.823 23.1464 108.042 24.0892 108.478 24.7282C108.914 25.3516 109.53 25.6632 110.325 25.6632Z"
    fill="#333333" />
  <path
    d="M131.453 21.8061C131.453 22.8658 131.305 23.8087 131.009 24.6347C130.728 25.4607 130.315 26.162 129.77 26.7386C129.24 27.2996 128.593 27.7282 127.829 28.0243C127.066 28.3048 126.201 28.4451 125.235 28.4451C124.346 28.4451 123.52 28.3048 122.757 28.0243C122.009 27.7282 121.362 27.2996 120.816 26.7386C120.271 26.162 119.842 25.4607 119.531 24.6347C119.235 23.8087 119.087 22.8658 119.087 21.8061C119.087 20.3879 119.336 19.1957 119.835 18.2295C120.333 17.2477 121.05 16.4996 121.985 15.9853C122.92 15.471 124.027 15.2139 125.305 15.2139C126.505 15.2139 127.564 15.471 128.484 15.9853C129.403 16.4996 130.128 17.2477 130.658 18.2295C131.188 19.1957 131.453 20.3879 131.453 21.8061ZM122.64 21.8061C122.64 22.6477 122.726 23.3568 122.897 23.9334C123.084 24.4944 123.372 24.923 123.762 25.2191C124.151 25.4996 124.658 25.6399 125.281 25.6399C125.905 25.6399 126.403 25.4996 126.777 25.2191C127.167 24.923 127.448 24.4944 127.619 23.9334C127.806 23.3568 127.9 22.6477 127.9 21.8061C127.9 20.9645 127.806 20.2633 127.619 19.7022C127.448 19.1412 127.167 18.7204 126.777 18.4399C126.388 18.1594 125.881 18.0191 125.258 18.0191C124.338 18.0191 123.668 18.3386 123.248 18.9775C122.842 19.6009 122.64 20.5438 122.64 21.8061Z"
    fill="#333333" />
</svg>
