<svg width="79" height="24" viewBox="0 0 79 24" fill="none" xmlns="http://www.w3.org/2000/svg">
  <path
    d="M2.12807 8.32951C0.72615 9.41899 1.7132 11.197 3.38742 11.5566L7.19495 12.4686C7.64193 12.5757 7.9978 12.0596 7.799 11.6451C6.41944 8.76939 8.6453 7.23711 14.0582 3.31974L7.2977 3.24419L2.12807 8.32951Z"
    fill="#FAC406" />
  <path
    d="M16.3434 15.67C17.7453 14.5805 16.7582 12.8025 15.084 12.4429L11.2765 11.5309C10.8295 11.4238 10.4736 11.94 10.6724 12.3544C12.052 15.2301 9.82613 16.7624 4.41324 20.6798L11.1737 20.7553L16.3434 15.67Z"
    fill="black" />
  <path
    d="M31.9933 14.4825C31.9933 15.0715 31.8483 15.5858 31.5585 16.0253C31.2686 16.4648 30.8478 16.8061 30.2961 17.0492C29.7538 17.283 29.0899 17.3999 28.3044 17.3999C27.9585 17.3999 27.6172 17.3765 27.2805 17.3297C26.9533 17.283 26.6353 17.2175 26.3268 17.1334C26.0276 17.0399 25.7424 16.9276 25.4712 16.7967V14.8191C25.9481 15.0248 26.439 15.2165 26.9439 15.3941C27.4582 15.5625 27.9678 15.6466 28.4728 15.6466C28.8187 15.6466 29.0946 15.5999 29.3003 15.5063C29.5153 15.4128 29.6696 15.2866 29.7631 15.1276C29.866 14.9687 29.9174 14.7863 29.9174 14.5806C29.9174 14.3282 29.8286 14.1131 29.6509 13.9354C29.4826 13.7578 29.2535 13.5941 28.9637 13.4445C28.6738 13.2856 28.3418 13.1173 27.9678 12.9396C27.734 12.8274 27.4816 12.6965 27.2104 12.5469C26.9392 12.3879 26.6774 12.1962 26.425 11.9718C26.1818 11.738 25.9808 11.4575 25.8218 11.1302C25.6629 10.803 25.5834 10.4102 25.5834 9.95206C25.5834 9.35362 25.719 8.84401 25.9902 8.42323C26.2707 7.9931 26.6634 7.66583 27.1683 7.44141C27.6826 7.217 28.2857 7.10479 28.9777 7.10479C29.5013 7.10479 29.9969 7.16557 30.4644 7.28713C30.9413 7.40869 31.4369 7.58167 31.9512 7.80609L31.2639 9.46115C30.8057 9.27414 30.3943 9.1292 30.0296 9.02635C29.665 8.92349 29.2909 8.87206 28.9076 8.87206C28.6457 8.87206 28.4213 8.91414 28.2343 8.99829C28.0473 9.08245 27.9024 9.19933 27.7995 9.34894C27.706 9.49855 27.6592 9.67622 27.6592 9.88193C27.6592 10.1157 27.7294 10.3167 27.8696 10.485C28.0099 10.644 28.2203 10.7983 28.5008 10.9479C28.7813 11.0975 29.132 11.2752 29.5528 11.4809C30.067 11.724 30.5018 11.9765 30.8572 12.2383C31.2218 12.5001 31.5024 12.8087 31.6987 13.164C31.8951 13.5193 31.9933 13.9588 31.9933 14.4825Z"
    fill="black" />
  <path
    d="M36.7871 9.44713C37.8157 9.44713 38.6011 9.67154 39.1434 10.1204C39.6951 10.5599 39.971 11.2378 39.971 12.1541V17.2596H38.5123L38.1055 16.2217H38.0494C37.8344 16.4928 37.6099 16.7173 37.3762 16.8949C37.1518 17.0726 36.8899 17.1988 36.5907 17.2736C36.3009 17.3578 35.9409 17.3999 35.5107 17.3999C35.0619 17.3999 34.6551 17.3157 34.2905 17.1474C33.9351 16.9697 33.6546 16.7032 33.4489 16.3479C33.2432 15.9832 33.1403 15.525 33.1403 14.9734C33.1403 14.1599 33.4255 13.5614 33.9959 13.178C34.5663 12.7853 35.4219 12.5702 36.5627 12.5328L37.8951 12.4908V12.1541C37.8951 11.7521 37.7876 11.4575 37.5725 11.2705C37.3668 11.0835 37.077 10.99 36.7029 10.99C36.3289 10.99 35.9642 11.0461 35.6089 11.1583C35.2536 11.2612 34.8983 11.3921 34.5429 11.551L33.8557 10.1344C34.2671 9.91933 34.7206 9.75102 35.2162 9.62946C35.7211 9.50791 36.2447 9.44713 36.7871 9.44713ZM37.0816 13.7391C36.4084 13.7578 35.9409 13.8793 35.679 14.1037C35.4172 14.3282 35.2863 14.6227 35.2863 14.9874C35.2863 15.3053 35.3798 15.5344 35.5668 15.6747C35.7538 15.8056 35.997 15.871 36.2962 15.871C36.745 15.871 37.1237 15.7401 37.4323 15.4783C37.7409 15.2071 37.8951 14.8284 37.8951 14.3422V13.711L37.0816 13.7391Z"
    fill="black" />
  <path d="M44.2 17.2596H42.1102V6.59985H44.2V17.2596Z" fill="black" />
  <path
    d="M48.2071 17.2596L45.2897 9.60141H47.4777L48.9505 13.9635C49.0066 14.1318 49.0533 14.3095 49.0907 14.4965C49.1375 14.6835 49.1702 14.8658 49.1889 15.0435C49.2169 15.2212 49.2357 15.3848 49.245 15.5344H49.3011C49.3105 15.3754 49.3292 15.2071 49.3572 15.0295C49.3853 14.8518 49.418 14.6741 49.4554 14.4965C49.5021 14.3095 49.5536 14.1318 49.6097 13.9635L51.0824 9.60141H53.2705L50.3531 17.2596H48.2071Z"
    fill="black" />
  <path
    d="M57.511 9.44713C58.5396 9.44713 59.325 9.67154 59.8674 10.1204C60.4191 10.5599 60.6949 11.2378 60.6949 12.1541V17.2596H59.2362L58.8295 16.2217H58.7733C58.5583 16.4928 58.3339 16.7173 58.1001 16.8949C57.8757 17.0726 57.6139 17.1988 57.3146 17.2736C57.0248 17.3578 56.6648 17.3999 56.2346 17.3999C55.7858 17.3999 55.3791 17.3157 55.0144 17.1474C54.6591 16.9697 54.3785 16.7032 54.1728 16.3479C53.9671 15.9832 53.8643 15.525 53.8643 14.9734C53.8643 14.1599 54.1495 13.5614 54.7198 13.178C55.2902 12.7853 56.1458 12.5702 57.2866 12.5328L58.6191 12.4908V12.1541C58.6191 11.7521 58.5115 11.4575 58.2965 11.2705C58.0908 11.0835 57.8009 10.99 57.4269 10.99C57.0528 10.99 56.6882 11.0461 56.3328 11.1583C55.9775 11.2612 55.6222 11.3921 55.2669 11.551L54.5796 10.1344C54.991 9.91933 55.4445 9.75102 55.9401 9.62946C56.445 9.50791 56.9687 9.44713 57.511 9.44713ZM57.8056 13.7391C57.1323 13.7578 56.6648 13.8793 56.403 14.1037C56.1411 14.3282 56.0102 14.6227 56.0102 14.9874C56.0102 15.3053 56.1037 15.5344 56.2908 15.6747C56.4778 15.8056 56.7209 15.871 57.0201 15.871C57.4689 15.871 57.8476 15.7401 58.1562 15.4783C58.4648 15.2071 58.6191 14.8284 58.6191 14.3422V13.711L57.8056 13.7391Z"
    fill="black" />
  <path
    d="M65.2606 17.3999C64.4097 17.3999 63.7131 17.0679 63.1707 16.404C62.6377 15.7308 62.3712 14.7443 62.3712 13.4445C62.3712 12.1354 62.6424 11.1443 63.1847 10.471C63.7271 9.79778 64.4377 9.46115 65.3167 9.46115C65.6814 9.46115 66.004 9.51258 66.2845 9.61544C66.565 9.70894 66.8034 9.83985 66.9998 10.0082C67.2055 10.1765 67.3785 10.3682 67.5188 10.5832H67.5889C67.5608 10.4336 67.5281 10.2186 67.4907 9.93804C67.4533 9.64817 67.4346 9.35362 67.4346 9.0544V6.59985H69.5245V17.2596H67.9255L67.5188 16.2637H67.4346C67.3037 16.4695 67.1354 16.6612 66.9297 16.8388C66.7333 17.0071 66.4995 17.1427 66.2284 17.2456C65.9572 17.3484 65.6346 17.3999 65.2606 17.3999ZM65.9899 15.7308C66.5697 15.7308 66.9764 15.5625 67.2102 15.2258C67.444 14.8799 67.5655 14.3656 67.5749 13.683V13.4586C67.5749 12.7105 67.458 12.1401 67.2242 11.7474C66.9998 11.3547 66.579 11.1583 65.9619 11.1583C65.5037 11.1583 65.1437 11.3593 64.8819 11.7614C64.6201 12.1541 64.4892 12.7245 64.4892 13.4726C64.4892 14.2206 64.6201 14.7863 64.8819 15.1697C65.1437 15.5437 65.5131 15.7308 65.9899 15.7308Z"
    fill="black" />
  <path
    d="M78.6668 13.4165C78.6668 14.0523 78.578 14.618 78.4003 15.1136C78.232 15.6092 77.9842 16.03 77.6569 16.376C77.339 16.7126 76.9509 16.9697 76.4928 17.1474C76.0346 17.3157 75.5156 17.3999 74.9359 17.3999C74.4029 17.3999 73.9073 17.3157 73.4491 17.1474C73.0003 16.9697 72.6122 16.7126 72.285 16.376C71.9577 16.03 71.7006 15.6092 71.5135 15.1136C71.3359 14.618 71.247 14.0523 71.247 13.4165C71.247 12.5656 71.3967 11.8502 71.6959 11.2705C71.9951 10.6814 72.4252 10.2326 72.9863 9.92401C73.5473 9.61544 74.2112 9.46115 74.978 9.46115C75.698 9.46115 76.3338 9.61544 76.8855 9.92401C77.4372 10.2326 77.872 10.6814 78.1899 11.2705C78.5078 11.8502 78.6668 12.5656 78.6668 13.4165ZM73.379 13.4165C73.379 13.9214 73.4304 14.3469 73.5333 14.6928C73.6455 15.0295 73.8185 15.2866 74.0522 15.4643C74.286 15.6326 74.5899 15.7167 74.9639 15.7167C75.338 15.7167 75.6372 15.6326 75.8616 15.4643C76.0954 15.2866 76.2637 15.0295 76.3665 14.6928C76.4787 14.3469 76.5348 13.9214 76.5348 13.4165C76.5348 12.9115 76.4787 12.4908 76.3665 12.1541C76.2637 11.8175 76.0954 11.565 75.8616 11.3967C75.6278 11.2284 75.3239 11.1443 74.9499 11.1443C74.3982 11.1443 73.9961 11.336 73.7437 11.7193C73.5006 12.0934 73.379 12.6591 73.379 13.4165Z"
    fill="black" />
</svg>
