<svg width="18" height="18" viewBox="0 0 18 18" fill="none" xmlns="http://www.w3.org/2000/svg">
  <path
    d="M10.9817 5.86239C10.156 5.2844 9.16514 5.11927 8.17431 5.2844C7.18349 5.53211 6.3578 6.11009 5.77982 6.93578C5.20184 7.76147 5.0367 8.75229 5.20183 9.74312C5.53211 11.5596 7.10092 12.7982 8.91743 12.7982C9.08257 12.7982 9.33028 12.7982 9.49541 12.7156H9.66055C11.1468 12.3853 12.3028 11.2294 12.633 9.74312C12.7156 9.24771 12.7156 8.75229 12.633 8.25688C12.3853 7.26606 11.8073 6.44037 10.9817 5.86239ZM10.9817 9.41284C10.8165 10.2385 10.2385 10.8165 9.41284 11.0642H9.33028C8.17431 11.3119 7.10092 10.5688 6.85321 9.41284C6.77064 8.83486 6.85321 8.33945 7.18349 7.84404C7.51376 7.34862 8.00917 7.10092 8.50459 6.93578H8.91743C9.90826 6.93578 10.8165 7.59633 10.9817 8.58716V9.41284ZM17.0917 10.156L16.1009 9.57798V9V8.50459L17.0917 7.92661C17.7523 7.51376 17.9174 6.68807 17.5872 6.11009L15.7706 2.97248C15.3578 2.31193 14.5321 2.14679 13.9541 2.47706L12.8807 3.05505C12.633 2.80734 12.3853 2.6422 12.055 2.47706V1.3211C12.055 0.66055 11.4771 0 10.7339 0H7.10092C6.3578 0 5.69725 0.577982 5.69725 1.3211V2.47706C5.44954 2.6422 5.11927 2.80734 4.87156 2.97248L3.79817 2.3945C3.22018 2.06422 2.3945 2.22936 1.98165 2.88991L0.165138 6.11009C-0.165138 6.68807 6.70552e-08 7.51376 0.66055 7.92661L1.65138 8.50459V9.57798L0.66055 10.156C0 10.5688 -0.165138 11.3945 0.165138 11.9725L1.98165 15.1101C2.3945 15.7706 3.22018 15.9358 3.79817 15.6055L4.78899 15.0275C5.0367 15.1927 5.36697 15.4404 5.69725 15.5229V16.6789C5.69725 17.422 6.27523 18 7.01835 18H10.7339C11.4771 18 12.055 17.422 12.055 16.6789V15.5229C12.3853 15.3578 12.633 15.1927 12.8807 15.0275L13.8716 15.6055C14.5321 15.9358 15.3578 15.7706 15.6881 15.1101L17.5046 11.9725C18 11.3119 17.7523 10.4862 17.0917 10.156ZM15.1101 10.8991L16.0183 11.3945L14.5321 14.0367L13.7064 13.5413C13.2936 13.211 12.7156 13.211 12.2202 13.5413C11.8899 13.789 11.6422 13.9541 11.2294 14.1193C10.7339 14.367 10.4862 14.8624 10.4862 15.3578V16.4312H7.34862V15.3578C7.34862 14.7798 7.01835 14.367 6.52294 14.1193C6.19266 13.9541 5.86238 13.789 5.53211 13.5413C5.11927 13.211 4.54128 13.211 4.12844 13.4587L3.30275 14.0367L1.81651 11.3945L2.72477 10.8991C3.22018 10.6514 3.46789 10.0734 3.38532 9.57798V8.50459C3.38532 7.92661 3.13761 7.43119 2.6422 7.18349L1.73394 6.6055L3.30275 3.9633L4.12844 4.45872C4.54128 4.78899 5.11927 4.78899 5.61468 4.45872C5.94495 4.21101 6.19266 4.04587 6.52294 3.88073C7.01835 3.63303 7.34862 3.22018 7.34862 2.6422V1.65138H10.4037V2.72477C10.4037 3.22018 10.7339 3.7156 11.2294 3.9633C11.5596 4.12844 11.8899 4.29358 12.2202 4.54128C12.633 4.87156 13.211 4.87156 13.6239 4.54128L14.5321 4.04587L16.0183 6.6055L15.1101 7.10092C14.6147 7.34862 14.367 7.92661 14.4495 8.33945V9.41284C14.367 10.0734 14.6972 10.6514 15.1101 10.8991Z"
    fill="#666666" />
</svg>
