<svg width="24" height="24" viewBox="0 0 24 24" fill="none" xmlns="http://www.w3.org/2000/svg">
  <path
    d="M24 4.56001C23.1003 4.96007 22.1457 5.22299 21.168 5.34001C22.1948 4.72427 22.9625 3.75608 23.328 2.61601C22.3598 3.19123 21.3007 3.59705 20.196 3.81601C19.5192 3.09982 18.643 2.60334 17.6808 2.39088C16.7187 2.17842 15.7149 2.25976 14.7994 2.62438C13.884 2.98899 13.0992 3.62008 12.5466 4.43589C11.9939 5.2517 11.699 6.21465 11.7 7.20001C11.7016 7.5758 11.7459 7.9502 11.832 8.31601C9.87248 8.21647 7.95585 7.70559 6.20677 6.81658C4.45769 5.92756 2.91533 4.68034 1.68 3.15601C1.24058 3.90576 1.00864 4.75897 1.008 5.62801C0.986206 6.43025 1.16591 7.22516 1.53068 7.94002C1.89544 8.65488 2.43363 9.26686 3.096 9.72001C2.28 9.69601 0.756 9.48001 0.756 9.10801V9.168C0.786328 10.3098 1.20452 11.4073 1.94174 12.2797C2.67895 13.1522 3.69125 13.7476 4.812 13.968C4.42134 14.0776 4.01772 14.1341 3.612 14.136C3.30999 14.1371 3.00859 14.109 2.712 14.052C3.02887 15.0306 3.64307 15.8859 4.46904 16.499C5.295 17.112 6.2916 17.4521 7.32 17.472C5.57887 18.8531 3.42237 19.6058 1.2 19.608C0.798938 19.6074 0.398254 19.5834 0 19.536C2.25204 20.981 4.87226 21.7474 7.548 21.744C9.39461 21.7632 11.2266 21.4144 12.9369 20.718C14.6473 20.0216 16.2019 18.9916 17.5099 17.688C18.818 16.3844 19.8533 14.8334 20.5556 13.1254C21.2578 11.4174 21.6128 9.58667 21.6 7.74001V7.10401C22.5431 6.40345 23.3555 5.5423 24 4.56001Z"
    fill="#666666" />
</svg>
